<?xml version="1.0" encoding="utf-8"?>
<!-- Generator: Adobe Illustrator 25.2.3, SVG Export Plug-In . SVG Version: 6.00 Build 0)  -->
<svg version="1.1" id="svg8"
     viewBox="0 0 512 512" style="enable-background:new 0 0 512 512;" xml:space="preserve">
  <path id="Selection #2"
        d="M 180.00,265.00
           C 162.38,270.03 164.55,278.97 150.00,279.00
             150.00,279.00 94.00,279.00 94.00,279.00
             81.73,279.00 69.81,280.14 58.00,276.25
             41.34,270.77 27.02,255.26 21.05,239.00
             18.37,231.67 17.01,225.81 17.00,218.00
             17.00,218.00 17.00,84.00 17.00,84.00
             17.05,52.66 42.91,23.05 75.00,23.00
             75.00,23.00 280.00,23.00 280.00,23.00
             311.97,23.05 337.98,51.60 338.00,83.00
             338.00,83.00 362.00,71.25 362.00,71.25
             362.00,71.25 400.00,52.25 400.00,52.25
             410.13,47.18 421.41,40.74 433.00,45.48
             442.30,49.29 444.96,57.76 445.00,67.00
             445.00,67.00 445.00,177.00 445.00,177.00
             433.25,171.35 427.87,167.68 414.00,169.17
             414.00,169.17 401.00,172.00 401.00,172.00
             401.00,172.00 401.00,103.00 401.00,103.00
             401.00,103.00 346.00,129.80 346.00,129.80
             343.57,131.16 341.40,132.51 340.02,135.04
             338.66,137.53 339.17,140.47 337.26,142.01
             335.71,143.26 331.95,143.00 330.00,143.00
             311.36,143.03 313.61,142.26 295.00,146.00
             295.00,146.00 295.00,102.00 295.00,102.00
             295.00,102.00 294.69,93.12 294.69,93.12
             294.69,93.12 293.92,86.00 293.92,86.00
             291.55,73.31 283.54,67.06 271.00,67.00
             271.00,67.00 165.00,67.00 165.00,67.00
             165.00,67.00 85.00,67.00 85.00,67.00
             82.35,67.00 79.57,66.89 77.00,67.64
             62.61,71.80 61.02,85.35 61.00,98.00
             61.00,98.00 61.00,207.00 61.00,207.00
             61.13,218.02 62.98,227.87 74.00,233.08
             81.56,236.66 99.26,236.00 108.00,236.00
             108.00,236.00 175.00,236.00 175.00,236.00
             175.00,250.45 174.48,251.13 180.00,265.00 Z
           M 285.00,207.00
           C 285.00,207.00 292.00,185.00 292.00,185.00
             293.82,179.54 295.13,174.25 300.04,170.65
             304.07,167.69 309.15,167.06 314.00,167.00
             314.00,167.00 355.00,167.00 355.00,167.00
             360.22,167.07 365.74,167.79 369.82,171.39
             374.69,175.69 375.94,182.08 377.72,188.00
             379.77,194.79 381.98,199.80 383.00,207.00
             394.57,204.28 407.55,193.49 418.00,193.04
             429.65,192.53 434.38,199.38 442.00,207.00
             442.00,207.00 464.79,230.00 464.79,230.00
             468.90,234.85 470.23,238.70 469.96,245.00
             469.64,252.35 459.47,270.94 456.00,279.00
             456.00,279.00 478.00,286.00 478.00,286.00
             483.46,287.82 488.75,289.13 492.35,294.04
             495.31,298.07 495.94,303.15 496.00,308.00
             496.00,308.00 496.00,349.00 496.00,349.00
             495.94,354.19 495.20,359.78 491.61,363.81
             487.55,368.37 480.63,370.02 475.00,371.72
             468.21,373.77 463.20,375.98 456.00,377.00
             458.99,389.72 470.89,402.28 469.91,415.00
             469.33,422.49 465.02,426.92 460.00,432.00
             460.00,432.00 440.00,452.00 440.00,452.00
             432.96,459.03 428.70,464.50 418.00,463.96
             409.76,463.54 393.05,452.90 384.00,449.00
             383.44,455.23 380.95,461.09 379.00,467.00
             376.58,474.34 375.08,482.58 367.99,487.00
             363.72,489.65 358.86,489.98 354.00,490.00
             354.00,490.00 314.00,490.00 314.00,490.00
             308.81,489.94 303.22,489.20 299.19,485.61
             294.63,481.55 292.98,474.63 291.28,469.00
             289.23,462.21 287.02,457.20 286.00,450.00
             274.43,452.72 261.45,463.51 251.00,463.96
             244.70,464.23 240.85,462.90 236.00,458.79
             236.00,458.79 213.00,436.00 213.00,436.00
             205.38,428.38 198.53,423.65 199.04,412.00
             199.35,404.85 209.55,386.02 213.00,378.00
             213.00,378.00 191.00,371.00 191.00,371.00
             185.54,369.18 180.25,367.87 176.65,362.96
             173.69,358.93 173.06,353.85 173.00,349.00
             173.00,349.00 173.00,308.00 173.00,308.00
             173.07,302.78 173.79,297.26 177.39,293.18
             181.69,288.31 188.08,287.06 194.00,285.28
             200.30,283.38 206.47,281.00 213.00,280.00
             210.28,268.43 199.49,255.45 199.04,245.00
             198.53,233.35 205.38,228.62 213.00,221.00
             213.00,221.00 236.00,198.21 236.00,198.21
             240.85,194.10 244.70,192.77 251.00,193.04
             258.15,193.35 276.98,203.55 285.00,207.00 Z
           M 326.04,201.43
           C 319.25,204.39 319.32,211.72 316.94,218.00
             313.80,226.26 309.56,232.51 302.00,237.29
             294.51,242.02 284.53,243.46 276.00,240.96
             270.65,239.39 256.68,231.18 253.00,231.72
             249.60,232.22 245.37,236.57 243.09,239.00
             241.67,240.52 239.35,243.16 238.47,245.00
             236.02,250.12 242.48,259.11 244.85,264.00
             248.81,273.14 249.59,283.84 244.85,293.00
             240.88,301.27 235.38,305.96 227.00,309.57
             212.03,316.03 207.16,313.39 207.00,325.00
             206.95,328.80 206.35,336.67 208.74,339.58
             211.14,342.51 221.06,344.85 225.00,346.45
             235.01,350.51 242.45,356.62 246.29,367.00
             249.46,375.57 248.50,384.81 244.68,393.00
             242.70,397.24 236.74,405.58 237.42,410.00
             237.98,413.73 245.93,421.42 249.00,423.68
             255.02,428.12 262.33,421.90 268.00,419.31
             278.32,414.58 287.16,412.83 298.00,417.47
             307.09,421.36 312.92,429.05 316.55,438.00
             321.61,450.50 319.47,455.84 331.00,456.00
             334.37,456.04 343.00,456.51 345.61,454.83
             348.98,452.65 351.25,442.95 352.69,439.00
             355.80,430.48 360.93,423.36 369.00,418.90
             379.26,413.23 389.64,414.04 400.00,418.90
             404.05,420.78 411.69,426.24 416.00,425.58
             419.71,425.02 426.40,417.91 428.85,415.00
             434.42,408.37 428.98,402.78 425.78,396.00
             421.34,386.60 418.93,378.28 422.36,368.00
             425.93,357.32 433.80,350.59 444.00,346.45
             447.94,344.85 457.86,342.51 460.26,339.58
             462.70,336.61 462.05,327.92 462.00,324.00
             461.84,312.63 455.75,314.76 443.00,309.55
             435.73,306.58 429.57,301.78 425.48,295.00
             419.67,285.38 419.66,274.07 424.32,264.00
             426.20,259.95 431.65,252.08 431.64,248.00
             431.63,243.14 419.90,231.23 415.00,231.53
             412.54,231.68 406.47,235.01 404.00,236.25
             397.31,239.58 392.67,241.81 385.00,241.99
             369.48,242.34 358.88,233.99 352.87,220.00
             351.12,215.91 348.54,205.16 345.58,202.74
             342.40,200.12 330.19,200.79 326.04,201.43 Z
           M 333.00,263.51
           C 352.39,263.13 372.11,270.92 384.68,286.00
             406.57,312.28 403.72,355.17 378.00,377.82
             362.78,391.22 348.31,393.22 329.00,393.00
             319.53,392.89 310.24,389.91 302.00,385.33
             280.92,373.63 270.61,354.60 269.74,331.00
             269.33,319.60 271.48,308.24 276.61,298.00
             288.77,273.67 307.66,266.25 333.00,263.51 Z
           M 334.00,297.37
           C 321.18,298.89 310.43,304.24 305.47,317.00
             297.82,336.66 313.06,360.95 335.00,359.79
             353.96,358.79 365.21,345.53 365.00,327.00
             364.86,315.07 358.87,305.61 348.00,300.40
             343.89,298.43 338.53,297.43 334.00,297.37 Z" />
</svg>
